# xmcd CD database file
#
# Track frame offsets:
#	150
#	12474
#	24420
#	38574
#	54032
#	65687
#	78965
#	88560
#	101745
#	114511
#	129036
#	144919
#	158241
#	172359
#	185892
#	201926
#
# Disc length: 2831 seconds
#
# Revision: 0
# Processed by: cddbd v1.5.1PL2 Copyright (c) Steve Scherf et al.
# Submitted via: CDex 1.50beta10
#
DISCID=d10b0d10
DTITLE=Costa Brothers - Ten Guitars 
DYEAR=1900
DGENRE=Country
TTITLE0=Ten Guitars 
TTITLE1=Save The Last Dance For Me 
TTITLE2=She Talks Dirty In Spanish 
TTITLE3=Help Me Make It Through The Night 
TTITLE4=Working For The Man 
TTITLE5=Stand By Me 
TTITLE6=All Shook Up 
TTITLE7=Tennessee Waltz 
TTITLE8=Kiss An Angel Good Morning 
TTITLE9=One Day At A Time 
TTITLE10=Sweet Caroline 
TTITLE11=Green Green Green Grass Of Home 
TTITLE12=Leave Him In The Longyard 
TTITLE13=Cheryl Moana Marie
TTITLE14=The Gambler 
TTITLE15=She's My Baby 
EXTD=
EXTT0=
EXTT1=
EXTT2=
EXTT3=
EXTT4=
EXTT5=
EXTT6=
EXTT7=
EXTT8=
EXTT9=
EXTT10=
EXTT11=
EXTT12=
EXTT13=
EXTT14=
EXTT15=
PLAYORDER=
